<svg xmlns="http://www.w3.org/2000/svg" width="35.547" height="30.4" viewBox="0 0 35.547 30.4"><path data-name="Path 650" d="M9.93 21.565h20.41a1.053 1.053 0 0 0 1.009-.753L35.5 6.865a1.053 1.053 0 0 0-1.009-1.354H7.692L6.275.752A1.053 1.053 0 0 0 5.266 0H1.053a1.053 1.053 0 1 0 0 2.106H4.48l1.41 4.736c0 .016.009.031.014.046l3.747 12.581a4.113 4.113 0 0 0 .278 8.217h1.046a3.767 3.767 0 0 0 7.234 0H23.8a3.767 3.767 0 0 0 7.234 0h1.357a1.053 1.053 0 1 0 0-2.106h-1.36a3.767 3.767 0 0 0-7.234 0h-5.588a3.767 3.767 0 0 0-7.234 0H9.93a2.007 2.007 0 0 1 0-4.015zM25.379 7.617h7.7l-1.45 4.867h-6.25zm0 6.974H31l-1.45 4.867h-4.171zm-7.793-6.974h5.687v4.867h-5.687V7.617zm0 6.974h5.687v4.867h-5.687v-4.867zm-2.106 4.867h-3.634L10.4 14.591h5.08zM8.319 7.617h7.161v4.867H9.769zm19.095 17.354a1.662 1.662 0 1 1-1.662 1.662 1.663 1.663 0 0 1 1.662-1.662zm-12.822 0a1.662 1.662 0 1 1-1.661 1.662 1.663 1.663 0 0 1 1.661-1.662z" fill="#fff"/></svg>